<svg xmlns="http://www.w3.org/2000/svg" width="50" height="45" viewBox="0 0 50 45" fill="none"><g fill="#005188" clip-path="url(#a)"><path d="M39.256 44.993 10.863 45c-.616 0-.979-.278-1.035-.82-.05-.469.252-.998.816-1.005l3.296-.038 1.37-1.404c1.258-1.29 1.863-3.11 1.679-5.023l-13.895-.108c-1.656-.014-3.077-1.696-3.077-3.35L0 3.59C0 1.696 1.47 0 3.388 0h43.2c1.931 0 3.384 1.692 3.385 3.591l.025 29.151c0 1.86-1.127 3.841-3.132 3.858l-13.873.115c-.184 1.864.374 3.67 1.594 4.93l1.451 1.497 3.295.037c.519.007.803.44.82.863.023.483-.295.953-.897.953zM26.97 22.813c1.907-2.133 1.51-5.32-.818-6.845-3.025-2.186-3.606-6.639-1-9.331l4.653-4.81L3.642 1.82c-1.032 0-1.849.775-1.849 1.81l-.018 25.63 18.879-.01 6.314-6.438zm-3.578 6.423 24.81.03-.007-25.634c-.07-1.082-.805-1.752-1.843-1.821l-13.845.01-5.679 5.657c-.991.988-1.57 2.216-1.479 3.586.087 1.29.674 2.564 1.837 3.364 3.065 2.111 3.768 6.464 1.317 9.368zm12.27 5.6v-3.784H1.806v2.014c-.002.987.773 1.769 1.838 1.769h32.02zm5.365-3.794h-3.525v3.8h3.525zm7.155 1.944.006-1.937h-5.333l.002 3.79 3.665-.028c.943-.007 1.656-.822 1.66-1.825M33.333 43.14c-1.58-2.065-2.372-3.997-2.108-6.455l-12.443.003c.254 2.505-.64 4.522-2.145 6.472l16.695-.02z"/><path d="M12.02 10.365c0 2.12-1.692 3.837-3.779 3.837s-3.778-1.717-3.778-3.837S6.154 6.528 8.24 6.528s3.779 1.718 3.779 3.837m-1.832.015c0-1.093-.873-1.982-1.952-1.982s-1.952.887-1.952 1.983c0 1.095.874 1.982 1.952 1.982 1.079 0 1.952-.887 1.952-1.982m12.122 10.295c0 2.123-1.695 3.844-3.786 3.844-2.09 0-3.785-1.72-3.785-3.844 0-2.122 1.695-3.844 3.785-3.844s3.786 1.721 3.786 3.844m-1.807.01c0-1.113-.89-2.017-1.987-2.017s-1.987.904-1.987 2.017c0 1.115.89 2.018 1.987 2.018s1.987-.903 1.987-2.018m-11.716.719c-.344.345-.976.138-1.164-.056-.209-.213-.466-.827-.137-1.16l10.42-10.534c.381-.385 1.027-.183 1.27.09a.95.95 0 0 1-.04 1.307zm33.986-10.382-9.6.005c-.577 0-.966-.274-1.054-.809-.06-.366.168-.993.741-.993h10.148c.49 0 .748.536.737.882-.017.464-.32.915-.969.915zm0 5.421-9.6.005c-.577 0-.966-.273-1.054-.804-.062-.37.168-.995.738-.995h10.151c.488 0 .748.533.735.882-.018.461-.322.91-.97.91zm0 5.423-9.6.005c-.575 0-.966-.275-1.052-.8-.064-.379.168-.993.733-.993l10.156-.005c.488 0 .746.533.733.885-.018.457-.322.91-.968.91z"/></g><defs><clipPath id="a"><path fill="#fff" d="M0 0h50v45H0z"/></clipPath></defs></svg>